<?xml version="1.0" encoding="UTF-8"?>
<svg version="1.1" xmlns="http://www.w3.org/2000/svg" width="4743" height="1328">
<path d="M0 0 C1565.19 0 3130.38 0 4743 0 C4743 438.24 4743 876.48 4743 1328 C3177.81 1328 1612.62 1328 0 1328 C0 889.76 0 451.52 0 0 Z " fill="#FEFEFE" transform="translate(0,0)"/>
<path d="M0 0 C129.81375 -0.309375 259.6275 -0.61875 393.375 -0.9375 C434.42310059 -1.07406006 475.47120117 -1.21062012 517.76318359 -1.35131836 C567.73754883 -1.41906738 567.73754883 -1.41906738 591.10366821 -1.43165588 C608.56747784 -1.44660328 626.03042087 -1.51138395 643.49398696 -1.60010141 C661.2929953 -1.68930349 679.0914547 -1.7225714 696.89067826 -1.70167426 C707.48019179 -1.69089389 718.06766653 -1.72091211 728.65680358 -1.81211393 C735.64520578 -1.86823121 742.63224941 -1.87014778 749.62074405 -1.8275301 C753.60454522 -1.80479619 757.58442831 -1.80598069 761.56781316 -1.87323868 C784.61461361 -2.24002582 784.61461361 -2.24002582 790.20554236 1.45935242 C793.61266653 4.87061386 795.57576788 8.64705925 797.24527927 13.12876635 C798.42231722 16.0470816 800.18111713 18.53611244 801.94921875 21.125 C803.19648962 23.08258383 804.44256605 25.04092916 805.6875 27 C812.82174794 38.18750791 820.0530796 49.30883435 827.31298828 60.41503906 C831.12422014 66.25488319 834.90571684 72.11400073 838.68945312 77.97167969 C840.95776799 81.48232796 843.22907298 84.99104113 845.5 88.5 C846.41668015 89.91665794 847.33334684 91.33332459 848.25 92.75 C848.70375 93.45125 849.1575 94.1525 849.625 94.875 C908.74999999 186.24999999 908.74999999 186.24999999 910.12451172 188.37426758 C911.042779 189.79339311 911.96107335 191.21250114 912.87939453 192.6315918 C915.14679201 196.13549597 917.41374501 199.63968595 919.6796875 203.14453125 C924.61004244 210.7693825 929.54970195 218.38807908 934.5 226 C939.89778982 234.30001525 945.28176625 242.60884956 950.65722656 250.92333984 C952.93723929 254.44948316 955.21870206 257.97468809 957.5 261.5 C958.41667341 262.9166623 959.33334008 264.33332897 960.25 265.75 C960.930625 266.801875 960.930625 266.801875 961.625 267.875 C1064.75000001 427.25000001 1064.75000001 427.25000001 1066.12451172 429.37426758 C1067.042779 430.79339311 1067.96107335 432.21250114 1068.87939453 433.6315918 C1071.14679201 437.13549597 1073.41374501 440.63968595 1075.6796875 444.14453125 C1080.61004244 451.7693825 1085.54970195 459.38807908 1090.5 467 C1095.89778982 475.30001525 1101.28176625 483.60884956 1106.65722656 491.92333984 C1108.93723929 495.44948316 1111.21870206 498.97468809 1113.5 502.5 C1114.41667341 503.9166623 1115.33334008 505.33332897 1116.25 506.75 C1116.70375 507.45125 1117.1575 508.1525 1117.625 508.875 C1220.74999998 668.24999998 1220.74999998 668.24999998 1222.12451172 670.37426758 C1223.042779 671.79339311 1223.96107335 673.21250114 1224.87939453 674.6315918 C1227.14679201 678.13549597 1229.41374501 681.63968595 1231.6796875 685.14453125 C1236.61004244 692.7693825 1241.54970195 700.38807908 1246.5 708 C1251.89778982 716.30001525 1257.28176625 724.60884956 1262.65722656 732.92333984 C1264.93723929 736.44948316 1267.21870206 739.97468809 1269.5 743.5 C1270.41667341 744.9166623 1271.33334008 746.33332897 1272.25 747.75 C1272.70375 748.45125 1273.1575 749.1525 1273.625 749.875 C1376.74999998 909.24999997 1376.74999998 909.24999997 1378.12451172 911.37426758 C1379.042779 912.79339311 1379.96107335 914.21250114 1380.87939453 915.6315918 C1383.14679201 919.13549597 1385.41374501 922.63968595 1387.6796875 926.14453125 C1392.61004244 933.7693825 1397.54970195 941.38807908 1402.5 949 C1407.89778982 957.30001525 1413.28176625 965.60884956 1418.65722656 973.92333984 C1420.93723929 977.44948316 1423.21870206 980.97468809 1425.5 984.5 C1426.41667341 985.9166623 1427.33334008 987.33332897 1428.25 988.75 C1428.70375 989.45125 1429.1575 990.1525 1429.625 990.875 C1543.75 1167.25 1543.75 1167.25 1545.12475586 1169.37475586 C1546.04207439 1170.79234113 1546.95955505 1172.20982151 1547.87719727 1173.62719727 C1550.16022691 1177.15396995 1552.4404708 1180.68248129 1554.71484375 1184.21484375 C1555.62222196 1185.62250793 1556.52977381 1187.03006019 1557.4375 1188.4375 C1557.8806958 1189.12529541 1558.3238916 1189.81309082 1558.78051758 1190.52172852 C1561.27082621 1194.37274429 1563.79588742 1198.19724928 1566.359375 1202 C1566.91439697 1202.82443604 1567.46941895 1203.64887207 1568.04125977 1204.49829102 C1569.12089353 1206.09796786 1570.20458212 1207.69491717 1571.29272461 1209.28881836 C1571.77749268 1210.00690674 1572.26226074 1210.72499512 1572.76171875 1211.46484375 C1573.19444092 1212.100271 1573.62716309 1212.73569824 1574.07299805 1213.39038086 C1575 1215 1575 1215 1575 1217 C1560.2946457 1217.72514887 1545.60421219 1218.18673276 1530.8826046 1218.38480377 C1527.37959786 1218.43193829 1523.87666999 1218.48325337 1520.37373352 1218.53533936 C1515.21427633 1218.61159174 1510.05479808 1218.68607072 1504.89529419 1218.75909424 C1491.39414297 1218.95026491 1477.89315199 1219.15230947 1464.3921864 1219.35612249 C1462.86306481 1219.37919422 1461.33394261 1219.40222617 1459.80481982 1219.42521906 C1433.47391569 1219.82118799 1407.14414366 1220.26995264 1380.81454992 1220.74481153 C1377.92832114 1220.79682922 1375.04208961 1220.84869177 1372.15585709 1220.90050125 C1355.07002225 1221.20722497 1337.98419712 1221.51442157 1320.89855957 1221.83197021 C1318.15619347 1221.88279778 1315.41382683 1221.9335959 1312.67145991 1221.98437905 C1310.87136428 1222.01778866 1309.07127108 1222.05132957 1307.27118039 1222.08500457 C1297.83041028 1222.26144729 1288.38974434 1222.42758348 1278.94821167 1222.55770874 C1276.53960506 1222.5914281 1274.13100046 1222.62528389 1271.72239804 1222.65930152 C1270.16781211 1222.68121447 1268.61322237 1222.70285831 1267.0586288 1222.72422242 C1258.45869209 1222.84531303 1249.87602807 1223.05017159 1241.28394032 1223.46139717 C1237.29508998 1223.6489075 1233.30548224 1223.78614992 1229.31435966 1223.91498947 C1226.80903827 1224.0182663 1224.31897086 1224.20065915 1221.81886292 1224.38858032 C1212.16325193 1224.82881554 1212.16325193 1224.82881554 1208.30838203 1221.56990433 C1205.04415537 1217.99605994 1202.50906611 1214.04783325 1200.09767723 1209.86581898 C1198.50751444 1207.16287878 1196.68171833 1204.6428768 1194.84765625 1202.1015625 C1193.58411701 1200.27730125 1192.32240132 1198.45177563 1191.0625 1196.625 C1189.68145319 1194.63118922 1188.2999393 1192.63770188 1186.91796875 1190.64453125 C1186.25200684 1189.68369629 1185.58604492 1188.72286133 1184.89990234 1187.73291016 C1182.24400844 1183.91254568 1179.56328864 1180.1101112 1176.875 1176.3125 C1169.61270512 1166.04935846 1162.41340273 1155.74228755 1155.20898438 1145.43847656 C1149.1551148 1136.78111226 1143.09770479 1128.12656637 1137 1119.5 C1129.69956312 1109.17190025 1122.45641484 1098.80380377 1115.20898438 1088.43847656 C1108.67149962 1079.08951613 1102.1241867 1069.74799345 1095.53857422 1060.43286133 C1091.07573897 1054.1165396 1086.6427678 1047.77950417 1082.2109375 1041.44140625 C1078.48715752 1036.11820536 1074.75023841 1030.80458881 1071 1025.5 C1063.69946564 1015.17196981 1056.45641434 1004.80380306 1049.20898438 994.43847656 C1042.67149962 985.08951613 1036.1241867 975.74799345 1029.53857422 966.43286133 C1025.07573897 960.1165396 1020.6427678 953.77950417 1016.2109375 947.44140625 C1012.48715752 942.11820536 1008.75023841 936.80458881 1005 931.5 C997.69946564 921.17196981 990.45641434 910.80380306 983.20898438 900.43847656 C977.1551148 891.78111226 971.09770479 883.12656637 965 874.5 C957.69956312 864.17190025 950.45641484 853.80380377 943.20898438 843.43847656 C936.67149962 834.08951613 930.1241867 824.74799345 923.53857422 815.43286133 C919.07573897 809.1165396 914.6427678 802.77950417 910.2109375 796.44140625 C906.48715752 791.11820536 902.75023841 785.80458881 899 780.5 C891.69946564 770.17196981 884.45641434 759.80380306 877.20898438 749.43847656 C870.67149962 740.08951613 864.1241867 730.74799345 857.53857422 721.43286133 C853.07573897 715.1165396 848.6427678 708.77950417 844.2109375 702.44140625 C840.48715752 697.11820536 836.75023841 691.80458881 833 686.5 C825.07507575 675.28864848 817.21401471 664.03255557 809.3515625 652.77734375 C808.15106687 651.05987822 806.95054637 649.34243007 805.75 647.625 C805.1725 646.79782471 804.595 645.97064941 804 645.1184082 C801.32546292 641.2939881 798.63676658 637.48219523 795.8984375 633.703125 C795.42696289 633.05134277 794.95548828 632.39956055 794.46972656 631.72802734 C793.59837293 630.52730583 792.7229648 629.32951203 791.84277344 628.13525391 C789 624.21948471 789 624.21948471 789 622 C784.99963304 625.74989676 781.96971118 629.69524839 778.9375 634.25 C777.9645322 635.68817062 776.9905399 637.12564857 776.015625 638.5625 C775.51740234 639.29855469 775.01917969 640.03460937 774.50585938 640.79296875 C772.10762925 644.3078845 769.64902018 647.77924427 767.1875 651.25 C762.77159344 657.48608826 758.37803779 663.73726521 754 670 C749.68101252 676.17688913 745.35101704 682.34562959 741 688.5 C734.30083886 697.97727045 727.65043366 707.48850191 721 717 C713.8659812 727.20312503 706.72563086 737.40128359 699.53857422 747.56713867 C695.67626528 753.03352596 691.83547932 758.51476211 688 764 C683.68093196 770.17683312 679.35101735 776.34562915 675 782.5 C668.30083886 791.97727045 661.65043366 801.48850191 655 811 C647.86446619 821.20529182 640.72189219 831.40510455 633.53417969 841.57373047 C627.32605403 850.36140404 621.16534054 859.18228559 615 868 C607.8659812 878.20312503 600.72563086 888.40128359 593.53857422 898.56713867 C589.67626528 904.03352596 585.83547932 909.51476211 582 915 C577.68093196 921.17683312 573.35101735 927.34562915 569 933.5 C562.30083886 942.97727045 555.65043366 952.48850191 549 962 C541.8659812 972.20312503 534.72563086 982.40128359 527.53857422 992.56713867 C523.67626528 998.03352596 519.83547932 1003.51476211 516 1009 C511.68093196 1015.17683312 507.35101735 1021.34562915 503 1027.5 C496.30083886 1036.97727045 489.65043366 1046.48850191 483 1056 C475.8659812 1066.20312503 468.72563086 1076.40128359 461.53857422 1086.56713867 C457.67626528 1092.03352596 453.83547932 1097.51476211 450 1103 C445.68093196 1109.17683312 441.35101735 1115.34562915 437 1121.5 C430.30083886 1130.97727045 423.65043366 1140.48850191 417 1150 C410.34956527 1159.51149962 403.69894357 1169.02257443 397 1178.5 C392.6335557 1184.67891683 388.2795346 1190.86640232 383.9375 1197.0625 C383.14375977 1198.19365234 383.14375977 1198.19365234 382.33398438 1199.34765625 C381.53250977 1200.49234375 381.53250977 1200.49234375 380.71484375 1201.66015625 C380.15822587 1202.41841674 379.60160799 1203.17667723 379.0281229 1203.95791531 C377.46246556 1206.30632439 376.24211687 1208.47194893 375.00824642 1210.98398685 C369.36860308 1221.69441805 369.36860308 1221.69441805 363.79096532 1223.85616374 C357.20800695 1225.11154585 350.53408054 1224.48174977 343.89086914 1224.06616211 C341.63563666 1223.9868087 339.38009489 1223.91587073 337.12435246 1223.85265255 C332.27508301 1223.70711906 327.42999918 1223.51906259 322.58342361 1223.30189133 C314.99276225 1222.97735038 307.40645153 1222.83972064 299.80978394 1222.75027466 C297.88271002 1222.72707333 297.88271002 1222.72707333 295.91670531 1222.70340329 C293.27509342 1222.67183398 290.63347867 1222.64050283 287.99186122 1222.60940182 C281.07779525 1222.52322486 274.1644749 1222.39139566 267.25108337 1222.26332092 C265.81884672 1222.23701786 264.38660967 1222.21073636 262.95437223 1222.18447608 C260.77417291 1222.14444631 258.59397498 1222.10434623 256.41378039 1222.06406021 C248.82662153 1221.92390552 241.23937212 1221.7889421 233.65211917 1221.65399467 C220.08938159 1221.41260626 206.52672485 1221.16695426 192.96411133 1220.91870117 C179.91598966 1220.67986987 166.8678177 1220.44408173 153.81958008 1220.21166992 C153.01285693 1220.19730035 152.20613378 1220.18293077 151.37496447 1220.16812576 C150.56938497 1220.15377705 149.76380547 1220.13942834 148.93381447 1220.12464482 C133.89234036 1219.85671655 118.850914 1219.58618905 103.80951039 1219.31433322 C99.30165384 1219.2328991 94.79378972 1219.15190055 90.28591912 1219.071248 C83.14063545 1218.9434068 75.99537771 1218.81426569 68.85016244 1218.68265242 C65.60315936 1218.62286581 62.35614647 1218.56381046 59.10910606 1218.50608253 C39.39918235 1218.15497643 19.70688186 1217.57961417 0 1217 C0 815.39 0 413.78 0 0 Z " fill="#0060C4" transform="translate(0,0)"/>
<path d="M0 0 C259.71 0 519.42 0 787 0 C785.56076341 3.59809148 784.41237485 6.13611227 782.34765625 9.265625 C781.82413574 10.06444092 781.30061523 10.86325684 780.76123047 11.6862793 C780.20064941 12.53230713 779.64006836 13.37833496 779.0625 14.25 C777.87870842 16.05325556 776.69511785 17.8566431 775.51171875 19.66015625 C774.9192334 20.56008301 774.32674805 21.46000977 773.71630859 22.38720703 C771.25006351 26.14165297 768.81121186 29.91352501 766.375 33.6875 C765.47664961 35.07687925 764.57821235 36.46620232 763.6796875 37.85546875 C763.01791504 38.87906494 763.01791504 38.87906494 762.34277344 39.92333984 C760.06276071 43.44948316 757.78129794 46.97468809 755.5 50.5 C754.58332659 51.9166623 753.66665992 53.33332897 752.75 54.75 C732.58333333 85.91666667 712.41666667 117.08333333 692.25 148.25 C691.5696167 149.30151245 691.5696167 149.30151245 690.87548828 150.37426758 C689.957221 151.79339311 689.03892665 153.21250114 688.12060547 154.6315918 C685.85320799 158.13549597 683.58625499 161.63968595 681.3203125 165.14453125 C675.83912124 173.62125727 670.34418153 182.0889204 664.84082031 190.55126953 C659.99679001 198.0013019 655.16745452 205.46076702 650.34277344 212.92333984 C648.06276071 216.44948316 645.78129794 219.97468809 643.5 223.5 C642.58332659 224.9166623 641.66665992 226.33332897 640.75 227.75 C605.91666667 281.58333333 571.08333333 335.41666667 536.25 389.25 C535.79641113 389.9510083 535.34282227 390.6520166 534.87548828 391.37426758 C533.957221 392.79339311 533.03892665 394.21250114 532.12060547 395.6315918 C529.85320799 399.13549597 527.58625499 402.63968595 525.3203125 406.14453125 C519.83912124 414.62125727 514.34418153 423.0889204 508.84082031 431.55126953 C503.99679001 439.0013019 499.16745452 446.46076702 494.34277344 453.92333984 C492.06276071 457.44948316 489.78129794 460.97468809 487.5 464.5 C486.58332659 465.9166623 485.66665992 467.33332897 484.75 468.75 C446.25 528.25 407.75 587.75 369.25 647.25 C368.79641113 647.9510083 368.34282227 648.6520166 367.87548828 649.37426758 C366.957221 650.79339311 366.03892665 652.21250114 365.12060547 653.6315918 C362.85320799 657.13549597 360.58625499 660.63968595 358.3203125 664.14453125 C352.83912124 672.62125727 347.34418153 681.0889204 341.84082031 689.55126953 C336.99679001 697.0013019 332.16745452 704.46076702 327.34277344 711.92333984 C325.06276071 715.44948316 322.78129794 718.97468809 320.5 722.5 C319.58332659 723.9166623 318.66665992 725.33332897 317.75 726.75 C282.91666667 780.58333333 248.08333333 834.41666667 213.25 888.25 C212.79641113 888.9510083 212.34282227 889.6520166 211.87548828 890.37426758 C210.957221 891.79339311 210.03892665 893.21250114 209.12060547 894.6315918 C206.85320799 898.13549597 204.58625499 901.63968595 202.3203125 905.14453125 C196.83912124 913.62125727 191.34418153 922.0889204 185.84082031 930.55126953 C180.99679001 938.0013019 176.16745452 945.46076702 171.34277344 952.92333984 C169.06276071 956.44948316 166.78129794 959.97468809 164.5 963.5 C163.58332659 964.9166623 162.66665992 966.33332897 161.75 967.75 C126.91666667 1021.58333333 92.08333333 1075.41666667 57.25 1129.25 C56.79641113 1129.9510083 56.34282227 1130.6520166 55.87548828 1131.37426758 C54.957221 1132.79339311 54.03892665 1134.21250114 53.12060547 1135.6315918 C50.85320799 1139.13549597 48.58625499 1142.63968595 46.3203125 1146.14453125 C40.83912124 1154.62125727 35.34418153 1163.0889204 29.84082031 1171.55126953 C26.34610744 1176.92607572 22.85744698 1182.30473932 19.375 1187.6875 C18.93478516 1188.36699707 18.49457031 1189.04649414 18.04101562 1189.74658203 C15.67494841 1193.4007835 13.31971524 1197.06152575 10.9765625 1200.73046875 C10.47850098 1201.50753174 9.98043945 1202.28459473 9.46728516 1203.08520508 C8.51331844 1204.57393283 7.562305 1206.06455861 6.61474609 1207.55737305 C6.18500488 1208.22679932 5.75526367 1208.89622559 5.3125 1209.5859375 C4.93738281 1210.1742334 4.56226563 1210.7625293 4.17578125 1211.36865234 C3 1213 3 1213 0 1216 C0 814.72 0 413.44 0 0 Z " fill="#FEFEFE" transform="translate(0,0)"/>
<path d="M0 0 C0.23976489 58.73112669 0.46263946 117.46230293 0.59280396 176.19378662 C0.59570315 177.49858622 0.59570315 177.49858622 0.59866092 178.8297454 C0.64056602 197.73633045 0.67934794 216.64292071 0.71491461 235.54951872 C0.73237664 244.82191337 0.75052849 254.09430661 0.76904297 263.36669922 C0.7708736 264.28939166 0.77270422 265.21208411 0.77459032 266.16273693 C0.83420151 296.04576027 0.93932365 325.9284119 1.06816109 355.81121025 C1.20036694 386.5312309 1.28643068 417.25104602 1.31480986 447.97134634 C1.31884376 452.31482905 1.32340267 456.65831107 1.3282814 461.00179291 C1.32922532 461.8566146 1.33016925 462.71143628 1.33114177 463.59216166 C1.34765712 477.32772506 1.41251085 491.06265112 1.49564848 504.79795507 C1.57828288 518.6217914 1.60949923 532.44499879 1.58901928 546.26907322 C1.57840664 554.47305117 1.60642582 562.67471923 1.6911656 570.87827802 C1.75025495 577.02090573 1.73524638 583.16133691 1.69258453 589.30405387 C1.68670042 591.77686539 1.7041916 594.24987578 1.74836455 596.72229972 C2.03414552 613.71594273 -1.20097552 623.81929158 -12.23098515 636.85722944 C-15.03569398 640.25451438 -17.50365085 643.87388884 -20 647.5 C-20.97751676 648.88658129 -21.9564964 650.27213345 -22.9375 651.65625 C-26.3056158 656.42774738 -29.65315322 661.21357065 -33 666 C-37.31906804 672.17683312 -41.64898265 678.34562915 -46 684.5 C-52.69916114 693.97727045 -59.34956634 703.48850191 -66 713 C-73.1340188 723.20312503 -80.27436914 733.40128359 -87.46142578 743.56713867 C-91.32373472 749.03352596 -95.16452068 754.51476211 -99 760 C-103.31906804 766.17683312 -107.64898265 772.34562915 -112 778.5 C-118.69916114 787.97727045 -125.34956634 797.48850191 -132 807 C-139.13553381 817.20529182 -146.27810781 827.40510455 -153.46582031 837.57373047 C-159.67394597 846.36140404 -165.83465946 855.18228559 -172 864 C-179.1340188 874.20312503 -186.27436914 884.40128359 -193.46142578 894.56713867 C-197.32373472 900.03352596 -201.16452068 905.51476211 -205 911 C-209.31906804 917.17683312 -213.64898265 923.34562915 -218 929.5 C-224.69916114 938.97727045 -231.34956634 948.48850191 -238 958 C-245.1340188 968.20312503 -252.27436914 978.40128359 -259.46142578 988.56713867 C-263.32373472 994.03352596 -267.16452068 999.51476211 -271 1005 C-275.31906804 1011.17683312 -279.64898265 1017.34562915 -284 1023.5 C-290.69916114 1032.97727045 -297.34956634 1042.48850191 -304 1052 C-311.1340188 1062.20312503 -318.27436914 1072.40128359 -325.46142578 1082.56713867 C-329.32373472 1088.03352596 -333.16452068 1093.51476211 -337 1099 C-341.31906804 1105.17683312 -345.64898265 1111.34562915 -350 1117.5 C-356.69916114 1126.97727045 -363.34956634 1136.48850191 -370 1146 C-376.65043473 1155.51149962 -383.30105643 1165.02257443 -390 1174.5 C-394.3664443 1180.67891683 -398.7204654 1186.86640232 -403.0625 1193.0625 C-403.85624023 1194.19365234 -403.85624023 1194.19365234 -404.66601562 1195.34765625 C-405.46749023 1196.49234375 -405.46749023 1196.49234375 -406.28515625 1197.66015625 C-406.84177413 1198.41841674 -407.39839201 1199.17667723 -407.9718771 1199.95791531 C-409.53753444 1202.30632439 -410.75788313 1204.47194893 -411.99175358 1206.98398685 C-417.63139692 1217.69441805 -417.63139692 1217.69441805 -423.20903468 1219.85616374 C-429.79199305 1221.11154585 -436.46591946 1220.48174977 -443.10913086 1220.06616211 C-445.36436334 1219.9868087 -447.61990511 1219.91587073 -449.87564754 1219.85265255 C-454.72491699 1219.70711906 -459.57000082 1219.51906259 -464.41657639 1219.30189133 C-472.00723775 1218.97735038 -479.59354847 1218.83972064 -487.19021606 1218.75027466 C-489.11728998 1218.72707333 -489.11728998 1218.72707333 -491.08329469 1218.70340329 C-493.72490658 1218.67183398 -496.36652133 1218.64050283 -499.00813878 1218.60940182 C-505.92220475 1218.52322486 -512.8355251 1218.39139566 -519.74891663 1218.26332092 C-521.18115328 1218.23701786 -522.61339033 1218.21073636 -524.04562777 1218.18447608 C-526.22582709 1218.14444631 -528.40602502 1218.10434623 -530.58621961 1218.06406021 C-538.17337847 1217.92390552 -545.76062788 1217.7889421 -553.34788083 1217.65399467 C-566.91061841 1217.41260626 -580.47327515 1217.16695426 -594.03588867 1216.91870117 C-607.08401034 1216.67986987 -620.1321823 1216.44408173 -633.18041992 1216.21166992 C-633.98714307 1216.19730035 -634.79386622 1216.18293077 -635.62503553 1216.16812576 C-636.43061503 1216.15377705 -637.23619453 1216.13942834 -638.06618553 1216.12464482 C-653.10765964 1215.85671655 -668.149086 1215.58618905 -683.19048961 1215.31433322 C-687.6982797 1215.2329003 -692.20607731 1215.15189992 -696.71388156 1215.0712545 C-759.32177386 1213.95101057 -759.32177386 1213.95101057 -787 1213 C-785.87878871 1211.07109355 -784.75672861 1209.14268046 -783.63430786 1207.21447754 C-783.00955126 1206.14053993 -782.38479465 1205.06660233 -781.74110603 1203.96012115 C-779.91868834 1200.86175893 -778.03293148 1197.84418529 -776.0546875 1194.84375 C-775.37680176 1193.8117749 -774.69891602 1192.7797998 -774.00048828 1191.71655273 C-773.29907715 1190.65509033 -772.59766602 1189.59362793 -771.875 1188.5 C-771.12578394 1187.36099215 -770.37692915 1186.22174658 -769.62841797 1185.08227539 C-768.12764559 1182.79783088 -766.62573547 1180.51414144 -765.12304688 1178.23095703 C-762.10836687 1173.6430689 -759.11425051 1169.04198346 -756.125 1164.4375 C-755.33899414 1163.22743286 -755.33899414 1163.22743286 -754.53710938 1161.99291992 C-749.7971839 1154.69298752 -745.06832433 1147.38590341 -740.34277344 1140.07666016 C-738.06276071 1136.55051684 -735.78129794 1133.02531191 -733.5 1129.5 C-732.58332659 1128.0833377 -731.66665992 1126.66667103 -730.75 1125.25 C-695.91666667 1071.41666667 -661.08333333 1017.58333333 -626.25 963.75 C-625.79641113 963.0489917 -625.34282227 962.3479834 -624.87548828 961.62573242 C-623.957221 960.20660689 -623.03892665 958.78749886 -622.12060547 957.3684082 C-619.85320799 953.86450403 -617.58625499 950.36031405 -615.3203125 946.85546875 C-609.83912124 938.37874273 -604.34418153 929.9110796 -598.84082031 921.44873047 C-593.99679001 913.9986981 -589.16745452 906.53923298 -584.34277344 899.07666016 C-582.06276071 895.55051684 -579.78129794 892.02531191 -577.5 888.5 C-576.58332659 887.0833377 -575.66665992 885.66667103 -574.75 884.25 C-522.5 803.5 -522.5 803.5 -470.25 722.75 C-469.79641113 722.0489917 -469.34282227 721.3479834 -468.87548828 720.62573242 C-467.957221 719.20660689 -467.03892665 717.78749886 -466.12060547 716.3684082 C-463.85320799 712.86450403 -461.58625499 709.36031405 -459.3203125 705.85546875 C-453.83912124 697.37874273 -448.34418153 688.9110796 -442.84082031 680.44873047 C-437.99679001 672.9986981 -433.16745452 665.53923298 -428.34277344 658.07666016 C-426.06276071 654.55051684 -423.78129794 651.02531191 -421.5 647.5 C-420.58332659 646.0833377 -419.66665992 644.66667103 -418.75 643.25 C-380.25 583.75 -341.75 524.25 -303.25 464.75 C-302.79641113 464.0489917 -302.34282227 463.3479834 -301.87548828 462.62573242 C-300.957221 461.20660689 -300.03892665 459.78749886 -299.12060547 458.3684082 C-296.85320799 454.86450403 -294.58625499 451.36031405 -292.3203125 447.85546875 C-286.83912124 439.37874273 -281.34418153 430.9110796 -275.84082031 422.44873047 C-270.99679001 414.9986981 -266.16745452 407.53923298 -261.34277344 400.07666016 C-259.06276071 396.55051684 -256.78129794 393.02531191 -254.5 389.5 C-253.58332659 388.0833377 -252.66665992 386.66667103 -251.75 385.25 C-216.91666667 331.41666667 -182.08333333 277.58333333 -147.25 223.75 C-146.5696167 222.69848755 -146.5696167 222.69848755 -145.87548828 221.62573242 C-144.957221 220.20660689 -144.03892665 218.78749886 -143.12060547 217.3684082 C-140.85320799 213.86450403 -138.58625499 210.36031405 -136.3203125 206.85546875 C-130.83912124 198.37874273 -125.34418153 189.9110796 -119.84082031 181.44873047 C-114.99679001 173.9986981 -110.16745452 166.53923298 -105.34277344 159.07666016 C-103.06276071 155.55051684 -100.78129794 152.02531191 -98.5 148.5 C-97.58332659 147.0833377 -96.66665992 145.66667103 -95.75 144.25 C-71.91666667 107.41666667 -48.08333333 70.58333333 -24.25 33.75 C-23.79568604 33.04770264 -23.34137207 32.34540527 -22.87329102 31.62182617 C-21.96296961 30.21531891 -21.05200682 28.80922653 -20.14038086 27.40356445 C-17.74601398 23.70972925 -15.36554486 20.00782857 -13.00390625 16.29296875 C-12.51148438 15.52210937 -12.0190625 14.75125 -11.51171875 13.95703125 C-10.5713716 12.48441213 -9.63493157 11.00928801 -8.703125 9.53125 C-2.60091272 0 -2.60091272 0 0 0 Z " fill="#011970" transform="translate(787,4)"/>
<path d="M0 0 C2.01788723 1.8774655 4.01152371 3.77895934 6 5.6875 C6.84328857 6.48994141 6.84328857 6.48994141 7.70361328 7.30859375 C15.76685851 15.01797312 23.08124642 23.00243316 29.72509766 31.96826172 C30.9627098 33.63721322 32.22053819 35.28927553 33.48046875 36.94140625 C61.74501252 74.62185322 74.09447511 118.76183588 81 164.6875 C81.31175764 166.67589779 81.62420257 168.664188 81.9375 170.65234375 C83.3938802 180.10953337 84.39299352 189.46120058 84.7890625 199.0234375 C84.93303401 202.61144647 84.93303401 202.61144647 85.50488281 205.81933594 C86.08166109 210.32548735 86.14356123 214.70563614 86.1328125 219.2421875 C86.13376923 220.14317169 86.13472595 221.04415588 86.13571167 221.97244263 C86.13638925 223.87013825 86.13456453 225.76783624 86.13037109 227.66552734 C86.12502947 230.54660336 86.13032402 233.42752261 86.13671875 236.30859375 C86.13605765 238.16145867 86.13477583 240.0143235 86.1328125 241.8671875 C86.13483673 242.71747528 86.13686096 243.56776306 86.13894653 244.44381714 C86.13579437 245.2614151 86.13264221 246.07901306 86.12939453 246.92138672 C86.12820114 247.97892654 86.12820114 247.97892654 86.12698364 249.05783081 C85.93913127 252.94801363 85.4300994 256.81660536 85 260.6875 C-41.72 260.6875 -168.44 260.6875 -299 260.6875 C-295.81550355 317.14112161 -295.81550355 317.14112161 -270 365.6875 C-269.5565625 366.27402344 -269.113125 366.86054687 -268.65625 367.46484375 C-253.39507323 387.23923438 -225.60832655 398.5947541 -201.66699219 402.27148438 C-174.29037419 405.37732706 -147.36384935 402.71156413 -122 391.6875 C-120.43958984 391.01267578 -120.43958984 391.01267578 -118.84765625 390.32421875 C-93.84744682 378.66183459 -79.81637307 359.71819951 -67 335.6875 C-18.82 335.6875 29.36 335.6875 79 335.6875 C66.87365914 380.15074984 39.20463767 421.14060363 3 449.6875 C1.9531128 450.54657796 0.90758653 451.40731652 -0.13671875 452.26953125 C-38.92913663 483.98534114 -90.12402226 503.58693433 -139.6875 509.75 C-141.51861328 509.98396484 -141.51861328 509.98396484 -143.38671875 510.22265625 C-157.8251957 511.76880822 -172.24420841 511.92938476 -186.75 511.9375 C-188.37973251 511.93851212 -188.37973251 511.93851212 -190.04238892 511.93954468 C-213.45725458 511.91647542 -235.71593565 510.15329814 -258.46826172 504.33154297 C-260.92262728 503.70718266 -263.38310006 503.11779721 -265.84765625 502.53515625 C-305.69868435 492.88238816 -340.88690198 472.15351548 -370.50732422 444.10107422 C-371.81292689 442.86465952 -373.1265143 441.63668746 -374.44140625 440.41015625 C-381.02901855 434.08180598 -386.53433037 426.98025933 -392 419.6875 C-392.43489746 419.10806641 -392.86979492 418.52863281 -393.31787109 417.93164062 C-419.69663529 382.51987527 -436.38079739 339.9552577 -442.45703125 296.29296875 C-442.88631839 292.74283324 -442.88631839 292.74283324 -444 289.6875 C-444.37208151 286.95793333 -444.70327135 284.23778547 -445 281.5 C-445.0825 280.78908203 -445.165 280.07816406 -445.25 279.34570312 C-447.00045017 263.49592385 -447.18635789 247.69397561 -447.18530273 231.76318359 C-447.18748326 228.09070125 -447.20568439 224.41852304 -447.22460938 220.74609375 C-447.27355822 200.79755229 -445.85584956 181.31582694 -442.6875 161.625 C-442.57851379 160.94517059 -442.46952759 160.26534119 -442.35723877 159.56491089 C-437.60867004 130.13224452 -429.43486208 100.43075135 -416 73.6875 C-415.5447998 72.77291016 -415.08959961 71.85832031 -414.62060547 70.91601562 C-409.03045677 59.75392125 -403.40560188 48.76734701 -396 38.6875 C-395.56751953 38.08953613 -395.13503906 37.49157227 -394.68945312 36.87548828 C-381.90982871 19.23557461 -368.12302831 3.27209905 -351 -10.3125 C-349.81664063 -11.29669922 -349.81664063 -11.29669922 -348.609375 -12.30078125 C-323.89339833 -32.72010635 -293.8607899 -46.98815927 -263 -55.3125 C-262.26023926 -55.51681641 -261.52047852 -55.72113281 -260.75830078 -55.93164062 C-176.46706681 -78.83367095 -77.95317028 -63.60032247 0 0 Z " fill="#575757" transform="translate(4055,532.3125)"/>
<path d="M0 0 C2.08297024 1.93735439 4.13793869 3.90238671 6.1875 5.875 C6.81591797 6.47618652 7.44433594 7.07737305 8.09179688 7.69677734 C17.27417779 16.52581882 25.70438754 25.55888698 33.1875 35.875 C33.5798584 36.41189453 33.9722168 36.94878906 34.37646484 37.50195312 C60.5258608 73.53536103 73.61363901 113.34354081 81.1875 156.875 C81.33670898 157.68936523 81.48591797 158.50373047 81.63964844 159.34277344 C86.28221002 184.7840109 87.47701345 210.99981909 87.4375 236.8125 C87.43633682 238.10444275 87.43633682 238.10444275 87.43515015 239.42248535 C87.42870742 241.87424988 87.41252929 244.32567224 87.390625 246.77734375 C87.38623917 247.4955278 87.38185333 248.21371185 87.37733459 248.95365906 C87.31520525 253.40811185 86.82576851 257.40712043 86.1875 261.875 C-40.5325 261.875 -167.2525 261.875 -297.8125 261.875 C-297.4825 263.195 -297.1525 264.515 -296.8125 265.875 C-296.64391482 267.95826889 -296.51762076 270.04511048 -296.41796875 272.1328125 C-296.35198486 273.38529785 -296.28600098 274.6377832 -296.21801758 275.92822266 C-296.18318268 276.59170715 -296.14834778 277.25519165 -296.11245728 277.93878174 C-293.99445693 316.75940034 -287.29761685 351.12421307 -257.50585938 378.41552734 C-229.93111998 402.181645 -194.68171781 405.57321836 -159.8125 403.875 C-129.98172823 401.44372124 -101.23704108 386.51968681 -81.8125 363.875 C-75.25124693 355.43812885 -70.61887564 346.48775127 -65.8125 336.875 C-17.6325 336.875 30.5475 336.875 80.1875 336.875 C77.93349407 347.01802671 77.93349407 347.01802671 76.5234375 350.56640625 C76.21051758 351.35724609 75.89759766 352.14808594 75.57519531 352.96289062 C75.24100586 353.77951172 74.90681641 354.59613281 74.5625 355.4375 C74.20768555 356.30955078 73.85287109 357.18160156 73.48730469 358.08007812 C64.8751565 378.92893909 53.74797368 398.60287976 39.1875 415.875 C38.22111251 417.04537342 37.25497096 418.21594995 36.2890625 419.38671875 C26.29277722 431.38390928 15.53145021 442.27991265 3.1875 451.875 C2.20523438 452.66261719 1.22296875 453.45023438 0.2109375 454.26171875 C-28.22534315 476.89348948 -61.18254437 491.56482137 -95.8125 501.875 C-96.57256348 502.10815918 -97.33262695 502.34131836 -98.11572266 502.58154297 C-113.95988376 507.4002923 -130.43237629 509.66649313 -146.8125 511.875 C-147.47581329 511.96678528 -148.13912659 512.05857056 -148.82254028 512.15313721 C-155.33060194 512.97577226 -161.79776771 513.05343719 -168.3515625 513.078125 C-169.54945404 513.08382507 -170.74734558 513.08952515 -171.98153687 513.09539795 C-174.51470061 513.10481285 -177.0478764 513.11136791 -179.58105469 513.11523438 C-183.37718405 513.12484726 -187.17274952 513.15586666 -190.96875 513.1875 C-259.3620839 513.48398997 -324.03635323 489.68753821 -373.1875 441.75 C-378.08369152 436.73261562 -382.48150632 431.38176173 -386.8125 425.875 C-387.60398437 424.90046875 -388.39546875 423.9259375 -389.2109375 422.921875 C-424.58275436 378.51183364 -439.70571475 322.48811241 -444.8125 266.875 C-444.90748779 265.95315918 -445.00247559 265.03131836 -445.1003418 264.08154297 C-446.18722456 252.33850484 -446.09986983 240.53337123 -446.125 228.75 C-446.12761841 227.57636902 -446.13023682 226.40273804 -446.13293457 225.19354248 C-446.13771506 205.12813953 -444.87499992 185.69101512 -441.8125 165.875 C-441.52052157 163.81384622 -441.22883254 161.75265142 -440.9375 159.69140625 C-433.05997993 107.18504947 -411.11901446 54.3992195 -374.8828125 15.1328125 C-373.02821134 13.11024746 -371.26214839 11.04016016 -369.5 8.9375 C-351.38818389 -11.69099215 -326.63615618 -27.80808738 -301.8125 -39.125 C-300.61004639 -39.67583252 -300.61004639 -39.67583252 -299.38330078 -40.23779297 C-276.97187312 -50.40542755 -253.27505312 -57.88029204 -228.8125 -61.125 C-227.87059814 -61.2502002 -227.87059814 -61.2502002 -226.90966797 -61.37792969 C-147.0008268 -71.82131209 -61.20396142 -55.12464177 0 0 Z " fill="#575757" transform="translate(2680.8125,531.125)"/>
<path d="M0 0 C52.8 0 105.6 0 160 0 C163.10558646 9.31675938 166.14299269 18.6110897 169 28 C169.73799196 30.38590948 170.47762415 32.77131213 171.21875 35.15625 C171.78142578 36.96802734 171.78142578 36.96802734 172.35546875 38.81640625 C172.73316406 40.03199219 173.11085938 41.24757813 173.5 42.5 C177.19472628 54.39121803 180.88071591 66.2846571 184.48510742 78.20361328 C187.71559465 88.87785227 191.05380566 99.51394008 194.44921875 110.13671875 C196.84163535 117.62533979 199.13706977 125.14239145 201.41015625 132.66796875 C205.5449693 146.33438861 209.79693634 159.96190083 214.09204102 173.57861328 C217.62073588 184.76760904 221.08904401 195.97355383 224.48510742 207.20361328 C227.71559465 217.87785227 231.05380566 228.51394008 234.44921875 239.13671875 C236.84163535 246.62533979 239.13706977 254.14239145 241.41015625 261.66796875 C245.5449693 275.33438861 249.79693634 288.96190083 254.09204102 302.57861328 C257.62073588 313.76760904 261.08904401 324.97355383 264.48510742 336.20361328 C267.4181851 345.89514584 270.42044812 355.56161824 273.51489258 365.20288086 C274.9855958 369.78890175 276.43045318 374.38154538 277.84301758 378.98583984 C279.94543208 385.82776793 282.06443881 392.66445461 284.1875 399.5 C284.7750637 401.39261767 285.36262721 403.2852354 285.95018005 405.17785645 C286.96664956 408.45194688 287.9833302 411.72597175 289 415 C290.21601267 418.91598118 291.4319841 422.83197513 292.64770508 426.74804688 C293.39999564 429.17127079 294.152427 431.59445101 294.9050293 434.01757812 C298.12931865 444.40354615 301.33721877 454.79421498 304.48510742 465.20361328 C307.4181851 474.89514584 310.42044812 484.56161824 313.51489258 494.20288086 C315.73263303 501.11835085 317.87558212 508.05533229 320 515 C320.32404312 516.05906555 320.32404312 516.05906555 320.65463257 517.13952637 C322.35473003 522.69668302 324.05254795 528.25453485 325.75 533.8125 C326.26170675 535.48763387 326.77342543 537.1627641 327.28515625 538.83789062 C328.52357458 542.89188523 329.76183277 546.9459287 331 551 C334.22799401 542.02313961 337.43920768 533.087754 339.9375 523.875 C340.43578984 522.0880639 340.93585654 520.30162254 341.4375 518.515625 C341.69144531 517.61134766 341.94539063 516.70707031 342.20703125 515.77539062 C343.5596799 511.04112036 344.99664498 506.3330447 346.4375 501.625 C346.73003662 500.66899902 347.02257324 499.71299805 347.32397461 498.72802734 C347.91847964 496.78761768 348.5134513 494.84735093 349.10888672 492.90722656 C350.58019556 488.10713186 352.03953365 483.30340233 353.5 478.5 C354.08327503 476.58331559 354.66660839 474.66664893 355.25 472.75 C355.53875 471.80125 355.8275 470.8525 356.125 469.875 C385 375 413.875 280.125 485.6262207 44.37109375 C486.20556285 42.4674716 486.78482803 40.56382602 487.36401367 38.66015625 C488.8827597 33.66870691 490.40311022 28.67775352 491.92578125 23.6875 C492.24160156 22.65173828 492.55742187 21.61597656 492.8828125 20.54882812 C493.48518028 18.57341615 494.08801531 16.59814657 494.69140625 14.62304688 C494.9646875 13.72650391 495.23796875 12.82996094 495.51953125 11.90625 C495.87688354 10.73545898 495.87688354 10.73545898 496.24145508 9.54101562 C497.18844139 6.36874862 498.0905087 3.18321954 499 0 C551.8 0 604.6 0 659 0 C656.75027639 10.12375623 656.75027639 10.12375623 655.25439453 14.18188477 C654.91786865 15.10388168 654.58134277 16.0258786 654.23461914 16.97581482 C653.68922485 18.44378258 653.68922485 18.44378258 653.1328125 19.94140625 C652.55333862 21.52339561 652.55333862 21.52339561 651.9621582 23.13734436 C651.12627643 25.41798346 650.28791347 27.6977144 649.44732666 29.97662354 C647.39729658 35.53588119 645.36308404 41.1009211 643.32854843 46.66586304 C642.62033891 48.60259036 641.91150625 50.53908893 641.20266724 52.47558594 C636.43829877 65.49977929 631.77568224 78.55982648 627.125 91.625 C620.16538255 111.16047315 613.16593296 130.68121052 606.125 150.1875 C605.89713554 150.81882214 605.66927109 151.45014427 605.43450165 152.10059738 C603.12278314 158.50535258 600.81039214 164.90986479 598.49749565 171.31419468 C593.81026071 184.29309982 589.12851316 197.2739838 584.44698334 210.25494766 C583.75002782 212.18742286 583.05302985 214.11988274 582.35601807 216.05233765 C575.86900646 234.03757809 569.38891042 252.02529766 562.91491699 270.01522827 C556.38228718 288.16763315 549.83828189 306.31592436 543.29174805 324.46331787 C536.85494082 342.30664041 530.42296207 360.15168783 524 378 C517.10588761 397.15755826 510.20075465 416.31112765 503.29174805 435.46331787 C496.85494082 453.30664041 490.42296207 471.15168783 484 489 C477.10588761 508.15755826 470.20075465 527.31112765 463.29174805 546.46331787 C456.85494079 564.3066405 450.4230768 582.15172907 444 600 C434.12298669 627.44449792 424.229798 654.88315051 414.32836914 682.31884766 C413.01354617 685.9624611 411.69910857 689.60621337 410.38476562 693.25 C408.36115905 698.85977973 406.33627642 704.46909716 404.31033325 710.07803345 C403.56697489 712.13661869 402.82402871 714.19535281 402.08151245 716.25424194 C401.06981633 719.05923514 400.0566037 721.86367572 399.04296875 724.66796875 C398.74618225 725.4918811 398.44939575 726.31579346 398.14361572 727.16467285 C396.11423655 732.77152689 396.11423655 732.77152689 395 735 C350.45 735 305.9 735 260 735 C242.79339334 686.82150136 242.79339334 686.82150136 234.4375 663.25 C233.50701808 660.62610358 232.57638996 658.00225903 231.64575195 655.37841797 C230.2055607 651.31785652 228.76540941 647.25728092 227.32548523 643.19662476 C223.98408798 633.77378938 220.64099747 624.35155603 217.296875 614.9296875 C216.35814965 612.28483238 215.41943019 609.63997517 214.48071289 606.99511719 C214.24976457 606.34441505 214.01881624 605.69371292 213.78086948 605.02329254 C206.34229395 584.06472311 198.9092722 563.10419958 191.48739624 542.13970947 C185.3333094 524.75683116 179.1678351 507.37800335 173 490 C166.15602472 470.71695766 159.31724203 451.43209363 152.48876953 432.14355469 C146.33422132 414.75939593 140.16829033 397.37928598 134 380 C127.15602472 360.71695766 120.31724203 341.43209363 113.48876953 322.14355469 C107.33422132 304.75939593 101.16829033 287.37928598 95 270 C88.15602472 250.71695766 81.31724203 231.43209363 74.48876953 212.14355469 C68.33422132 194.75939593 62.16829033 177.37928598 56 160 C49.15971815 140.72736397 42.32447934 121.45295895 35.49984741 102.17477417 C31.09439518 89.73074885 26.68429789 77.28837968 22.26953125 64.84765625 C22.02279034 64.15234173 21.77604942 63.45702721 21.52183151 62.74064255 C19.30846327 56.50350608 17.09491025 50.2664352 14.88085938 44.02954102 C14.64898737 43.37636209 14.41711536 42.72318317 14.17821693 42.05021095 C13.71853375 40.75531316 13.25883621 39.46042047 12.79912376 38.16553307 C11.29274523 33.9221531 9.78803504 29.67818374 8.28369141 25.43408203 C6.87055108 21.44834114 5.45174204 17.46474285 4.02490234 13.48388672 C3.73769821 12.6794664 3.45049408 11.87504608 3.15458679 11.04624939 C2.64152465 9.60959506 2.12611166 8.17377687 1.60774231 6.73902893 C0 2.22542358 0 2.22542358 0 0 Z " fill="#575757" transform="translate(1576,286)"/>
<path d="M0 0 C58.74 0 117.48 0 178 0 C182.95 8.91 187.9 17.82 193 27 C198.2255568 35.95828643 198.2255568 35.95828643 203.46875 44.90625 C207.9058094 52.51263755 212.14317744 60.22805054 216.39672852 67.93798828 C220.47619813 75.31215043 224.66051135 82.61383972 228.9375 89.875 C234.4695041 99.270626 239.77206421 108.77900982 245.00814819 118.34106445 C250.86505729 129.02940298 256.92492797 139.58278406 263.109375 150.0859375 C263.85477539 151.3538916 263.85477539 151.3538916 264.61523438 152.64746094 C265.49829478 154.14766722 266.38467141 155.64592986 267.27539062 157.14160156 C270 161.77725482 270 161.77725482 270 164 C270.66 164 271.32 164 272 164 C272.22300781 163.19949219 272.44601562 162.39898438 272.67578125 161.57421875 C274.37058383 156.99975161 276.72149304 153.00994166 279.1875 148.8125 C280.277588 146.93188506 281.36605094 145.05032748 282.453125 143.16796875 C283.3184082 141.67015869 283.3184082 141.67015869 284.20117188 140.14208984 C287.33546658 134.66728354 290.38387341 129.14507788 293.4375 123.625 C298.63363157 114.24408665 303.87187028 104.88893888 309.15820312 95.55859375 C314.88638693 85.44509706 320.56042614 75.30149309 326.23388672 65.15722656 C329.73146124 58.90471983 333.23289456 52.65437276 336.734375 46.40405273 C339.74153887 41.03550499 342.74598961 35.66546532 345.74609375 30.29296875 C346.67325195 28.63394531 346.67325195 28.63394531 347.61914062 26.94140625 C348.78671208 24.85206786 349.95345097 22.76226387 351.11914062 20.671875 C352.16481891 18.80145405 353.2272254 16.94023472 354.3102026 15.09115982 C356.05339745 12.05167082 356.05339745 12.05167082 357.24662876 8.86022568 C358.81754481 5.30632014 360.28022448 2.79209813 363 0 C368.69360232 -1.77584546 374.22078758 -1.52179999 380.13452148 -1.36230469 C381.8892239 -1.3589175 383.64394332 -1.36082433 385.39863586 -1.36761475 C390.15163358 -1.37105305 394.90098486 -1.30060039 399.65313601 -1.21672726 C404.62306556 -1.14162088 409.59308234 -1.13465575 414.56349182 -1.12042236 C423.97054458 -1.08314989 433.37592037 -0.98471508 442.78223521 -0.86422849 C453.4929599 -0.73001704 464.20376545 -0.66410084 474.91512191 -0.60388327 C496.94435001 -0.47851009 518.9720693 -0.26749275 541 0 C535.7561726 10.68804692 528.00402279 20.33542391 521.2097168 30.07763672 C516.84038468 36.34498444 512.4961416 42.62827806 508.1875 48.9375 C507.65592285 49.71585205 507.1243457 50.4942041 506.57666016 51.29614258 C505.54055999 52.81371326 504.50458611 54.33137017 503.46875 55.84912109 C496.05369033 66.70794351 488.56034677 77.51110374 481.04370117 88.29980469 C476.30478517 95.10790369 471.60769424 101.94311439 466.93408203 108.79614258 C462.65914556 115.05629287 458.3349411 121.28128599 454 127.5 C447.43785264 136.91484669 440.93791321 146.37022921 434.46875 155.84912109 C427.05369033 166.70794351 419.56034677 177.51110374 412.04370117 188.29980469 C407.30478517 195.10790369 402.60769424 201.94311439 397.93408203 208.79614258 C393.65914502 215.05629366 389.33486812 221.28123442 385 227.5 C378.91207575 236.23646258 372.84637969 244.98678247 366.87109375 253.80078125 C365.06978438 256.45442628 363.23484913 259.07477566 361.34765625 261.66796875 C360.59355469 262.72628906 359.83945312 263.78460937 359.0625 264.875 C358.41410156 265.75929688 357.76570313 266.64359375 357.09765625 267.5546875 C355.74502021 269.92888702 355.74502021 269.92888702 356.48828125 272.359375 C358.49432291 275.86346844 360.75408011 279.10942257 363.125 282.375 C364.21051448 283.89129815 365.29509944 285.40826204 366.37890625 286.92578125 C367.25313232 288.1470874 367.25313232 288.1470874 368.14501953 289.39306641 C371.48755994 294.09057186 374.77344621 298.82746396 378.0625 303.5625 C378.74828125 304.54887451 379.4340625 305.53524902 380.140625 306.55151367 C384.42397778 312.71702326 388.68416965 318.89791743 392.92919922 325.08984375 C397.06821575 331.11804431 401.26400514 337.10598546 405.46191406 343.09326172 C411.9886575 352.40383224 418.47812613 361.74021261 424.96777344 371.07666016 C428.31061055 375.88530162 431.65539381 380.69258892 435 385.5 C436.33334287 387.41666003 437.6666762 389.3333267 439 391.25 C439.66 392.19875 440.32 393.1475 441 394.125 C453.66666667 412.33333333 466.33333333 430.54166667 479 448.75 C479.66040283 449.69931396 480.32080566 450.64862793 481.0012207 451.62670898 C482.33054229 453.5376392 483.65980689 455.44860907 484.98901367 457.35961914 C488.38325348 462.23938502 491.7785719 467.11839466 495.17578125 471.99609375 C501.45069365 481.00752832 507.71634698 490.02431806 513.92358398 499.08251953 C517.53937778 504.35030479 521.20452057 509.58271903 524.875 514.8125 C529.73952143 521.74949621 534.57767157 528.70383725 539.375 535.6875 C539.9407373 536.50774658 540.50647461 537.32799316 541.08935547 538.1730957 C541.86110107 539.29977661 541.86110107 539.29977661 542.6484375 540.44921875 C543.10395996 541.11268311 543.55948242 541.77614746 544.02880859 542.4597168 C545 544 545 544 545 545 C486.26 545 427.52 545 367 545 C349.25 513.9375 349.25 513.9375 347.59814453 511.0456543 C344.79543915 506.13913309 341.98903977 501.2347499 339.1796875 496.33203125 C337.82771834 493.97158682 336.47620152 491.61088393 335.125 489.25 C334.78571472 488.6572226 334.44642944 488.06444519 334.09686279 487.45370483 C329.30635756 479.07991078 324.57107799 470.67722661 319.875 462.25 C315.33927986 454.11264863 310.71524716 446.03462365 306 438 C299.43053917 426.80503694 293.08270039 415.49419136 286.76416016 404.15625 C283.73647748 398.73943826 280.68105473 393.33834083 277.625 387.9375 C277.059021 386.93710693 276.49304199 385.93671387 275.90991211 384.90600586 C274.60703009 382.60376454 273.30376344 380.30174225 272 378 C271.34 378 270.68 378 270 378 C269.67950684 378.57105469 269.35901367 379.14210938 269.02880859 379.73046875 C262.82992775 390.76434508 256.5843576 401.76701933 250.1875 412.6875 C245.11668339 421.34672009 240.09813649 430.03437882 235.125 438.75 C234.62608749 439.62421097 234.62608749 439.62421097 234.11709595 440.51608276 C231.74316765 444.67649804 229.37133723 448.83810748 227 453 C224.29310624 457.75082192 221.58529654 462.50111834 218.875 467.25 C218.54195862 467.83358276 218.20891724 468.41716553 217.86578369 469.01843262 C212.73233168 478.00952695 207.53548626 486.96214064 202.30395508 495.89648438 C197.0018954 504.96458473 191.78949777 514.08276506 186.59179688 523.2109375 C185.96466797 524.31179688 185.33753906 525.41265625 184.69140625 526.546875 C184.14685791 527.50432617 183.60230957 528.46177734 183.04125977 529.44824219 C182.72314898 529.96755058 182.40503819 530.48685898 182.07728767 531.02190399 C180.88531187 533.1084904 180.88531187 533.1084904 179.87179375 535.92395782 C178.26129255 539.54627431 176.75587852 542.13398108 174 545 C168.31088706 546.78613775 162.77776597 546.52176098 156.86547852 546.36230469 C155.1107761 546.3589175 153.35605668 546.36082433 151.60136414 546.36761475 C146.84836642 546.37105305 142.09901514 546.30060039 137.34686399 546.21672726 C132.37693444 546.14162088 127.40691766 546.13465575 122.43650818 546.12042236 C113.02945542 546.08314989 103.62407963 545.98471508 94.21776479 545.86422849 C83.5070401 545.73001704 72.79623455 545.66410084 62.08487809 545.60388327 C40.05564999 545.47851009 18.0279307 545.26749275 -4 545 C-2.52708104 541.99295856 -0.90719011 539.26645719 0.984375 536.5 C1.58241943 535.62351807 2.18046387 534.74703613 2.79663086 533.84399414 C3.76354858 532.43621704 3.76354858 532.43621704 4.75 531 C5.4210376 530.0195874 6.0920752 529.0391748 6.78344727 528.02905273 C12.27414554 520.02213353 17.83005104 512.06194215 23.41015625 504.1171875 C27.24809698 498.65195991 31.06303627 493.17086677 34.875 487.6875 C35.54265381 486.727229 36.21030762 485.76695801 36.89819336 484.77758789 C38.25480255 482.82622923 39.61132897 480.87481302 40.96777344 478.92333984 C43.6461602 475.0705043 46.3258208 471.21855576 49.00561523 467.36669922 C50.33334723 465.45823685 51.66098422 463.54970839 52.98852539 461.64111328 C56.38290841 456.76108965 59.77840423 451.88184608 63.17578125 447.00390625 C69.01304247 438.62098483 74.84963106 430.23822419 80.625 421.8125 C85.19454373 415.14708623 89.82252354 408.52367859 94.46191406 401.90673828 C100.9886575 392.59616776 107.47812613 383.25978739 113.96777344 373.92333984 C117.31061055 369.11469838 120.65539381 364.30741108 124 359.5 C125.33334287 357.58333997 126.6666762 355.6666733 128 353.75 C136 342.25 144 330.75 152 319.25 C152.66088623 318.29996094 153.32177246 317.34992188 154.00268555 316.37109375 C155.32700976 314.46740805 156.65139064 312.56376178 157.97583008 310.66015625 C161.44748498 305.67021382 164.91795535 300.67945298 168.38671875 295.6875 C169.46663086 294.13385742 169.46663086 294.13385742 170.56835938 292.54882812 C171.94112137 290.57382216 173.31353923 288.59857695 174.68554688 286.62304688 C175.62043945 285.27823242 175.62043945 285.27823242 176.57421875 283.90625 C177.15606934 283.060625 177.73791992 282.215 178.33740234 281.34375 C179.39403503 279.85422374 180.490036 278.39129598 181.63525391 276.96875 C183.26531775 275.00548312 183.26531775 275.00548312 185 272 C184.75288798 269.36059728 184.75288798 269.36059728 183 267 C182.32710937 265.95070313 181.65421875 264.90140625 180.9609375 263.8203125 C180.10396908 262.58505034 179.24159072 261.35353083 178.375 260.125 C177.8991748 259.44155518 177.42334961 258.75811035 176.93310547 258.05395508 C175.87353753 256.53302731 174.81172808 255.01365941 173.74804688 253.49560547 C170.52942707 248.90053122 167.32911326 244.29269504 164.125 239.6875 C163.09608643 238.21047607 163.09608643 238.21047607 162.04638672 236.70361328 C157.30617043 229.89465433 152.6085093 223.05808076 147.93408203 216.20385742 C143.65914587 209.94370759 139.33498257 203.71868467 135 197.5 C129.60507082 189.7607847 124.24892401 181.99717535 118.93359375 174.203125 C114.65880101 167.94323195 110.33477331 161.71847331 106 155.5 C99.43785264 146.08515331 92.93791321 136.62977079 86.46875 127.15087891 C79.05369033 116.29205649 71.56034677 105.48889626 64.04370117 94.70019531 C59.30478517 87.89209631 54.60769424 81.05688561 49.93408203 74.20385742 C45.65914556 67.94370713 41.3349411 61.71871401 37 55.5 C30.45411525 46.1084856 23.97010702 36.67666842 17.51708984 27.22119141 C15.01676683 23.56043525 12.50952091 19.90445503 10 16.25 C9.5671167 15.61843994 9.1342334 14.98687988 8.68823242 14.33618164 C8.27549072 13.73539795 7.86274902 13.13461426 7.4375 12.515625 C6.84195313 11.6484082 6.84195313 11.6484082 6.234375 10.76367188 C4.91433106 8.87759643 3.55060299 7.0269969 2.1875 5.171875 C0 2 0 2 0 0 Z " fill="#575757" transform="translate(4171,476)"/>
<path d="M0 0 C49.17 0 98.34 0 149 0 C149 48.18 149 96.36 149 146 C176.39 146 203.78 146 232 146 C232 177.35 232 208.7 232 241 C204.61 241 177.22 241 149 241 C149.06144879 280.85684131 149.13354829 320.71359849 149.22898628 360.57036987 C149.24025373 365.28145074 149.2513923 369.99253191 149.26245117 374.70361328 C149.2657567 376.11038331 149.2657567 376.11038331 149.269129 377.54557294 C149.30445066 392.70845963 149.32934372 407.87134627 149.35034702 423.03425878 C149.37215002 438.60593972 149.40524298 454.17756751 149.44870156 469.74920321 C149.47514092 479.34894613 149.49289303 488.9486229 149.49934604 498.5484004 C149.50462362 505.14146355 149.52091957 511.73444364 149.54566566 518.3274622 C149.55959993 522.12483444 149.568882 525.92205826 149.56500816 529.71945763 C149.01942113 558.68805208 149.01942113 558.68805208 159.125 585.3125 C169.92117768 595.40457913 184.07742721 595.33287451 198.0625 595.25 C199.34060547 595.25773438 200.61871094 595.26546875 201.93554688 595.2734375 C212.20520369 595.25292895 221.64598059 594.1504466 232 593 C232 626 232 659 232 693 C187.15498018 703.34885073 138.65775855 708.5868689 93 699 C92.13052734 698.81808105 91.26105469 698.63616211 90.36523438 698.44873047 C60.29450669 691.80919924 34.91316148 675.39675882 17.84375 649.76171875 C0.16634322 620.83196265 -0.31755841 587.45525608 -0.23213124 554.62742174 C-0.22339608 550.40753945 -0.22642393 546.18766223 -0.22793579 541.96777344 C-0.22897835 534.6780124 -0.22276803 527.38828749 -0.21146011 520.09853554 C-0.19512205 509.55912149 -0.18998866 499.01972471 -0.18748413 488.48029938 C-0.18311998 471.37577239 -0.16984581 454.27126462 -0.15087891 437.16674805 C-0.13248684 420.56323339 -0.11834667 403.95972397 -0.10986328 387.35620117 C-0.10933783 386.33067944 -0.10881239 385.30515772 -0.10827102 384.24855957 C-0.10566071 379.10319708 -0.10313335 373.95783454 -0.10064721 368.81247199 C-0.07995461 326.20829759 -0.04310652 283.60415877 0 241 C-24.09 241 -48.18 241 -73 241 C-73 209.65 -73 178.3 -73 146 C-48.91 146 -24.82 146 0 146 C0 97.82 0 49.64 0 0 Z " fill="#575757" transform="translate(3323,341)"/>
<path d="M0 0 C3.20854806 1.35784013 4.75398618 2.64806376 6.62890625 5.5703125 C7.10062256 6.293396 7.57233887 7.01647949 8.05834961 7.76147461 C8.55471924 8.54143799 9.05108887 9.32140137 9.5625 10.125 C10.63697487 11.77542101 11.71251639 13.42514804 12.7890625 15.07421875 C13.32821289 15.9048584 13.86736328 16.73549805 14.42285156 17.59130859 C16.7061428 21.07845277 19.06483161 24.51079667 21.4375 27.9375 C22.34518955 29.25250929 23.2527394 30.56761502 24.16015625 31.8828125 C24.6205127 32.54958008 25.08086914 33.21634766 25.55517578 33.90332031 C28.17135201 37.69982613 30.77265445 41.50650663 33.375 45.3125 C33.91890381 46.107771 34.46280762 46.90304199 35.02319336 47.72241211 C36.12977772 49.34045536 37.23630418 50.9585382 38.34277344 52.57666016 C41.061094 56.55162332 43.78058496 60.52578556 46.5 64.5 C49.77403469 69.28474811 53.0477981 74.06968067 56.3203125 78.85546875 C61.37212747 86.24255668 66.42722009 93.62728892 71.5 101 C78.24188638 110.7985683 84.95268689 120.61837854 91.66601562 130.43652344 C97.26890238 138.63016922 102.87351185 146.8225367 108.5 155 C115.24188638 164.7985683 121.95268689 174.61837854 128.66601562 184.43652344 C134.26890238 192.63016922 139.87351185 200.8225367 145.5 209 C152.24188638 218.7985683 158.95268689 228.61837854 165.66601562 238.43652344 C171.26890238 246.63016922 176.87351185 254.8225367 182.5 263 C188.12948224 271.18181487 193.73696291 279.37861487 199.34277344 287.57666016 C202.061094 291.55162332 204.78058496 295.52578556 207.5 299.5 C210.77403469 304.28474811 214.0477981 309.06968067 217.3203125 313.85546875 C222.37212747 321.24255668 227.42722009 328.62728892 232.5 336 C239.24188638 345.7985683 245.95268689 355.61837854 252.66601562 365.43652344 C258.26890358 373.63017098 263.87398443 381.82221018 269.5 390 C270.38413386 391.28644509 271.26824816 392.57290361 272.15234375 393.859375 C273.66883696 396.06577267 275.18698843 398.27099153 276.70751953 400.47460938 C278.4947584 403.06486696 280.27879234 405.65730989 282.0625 408.25 C282.62324219 409.06082031 283.18398437 409.87164063 283.76171875 410.70703125 C284.28507812 411.46886719 284.8084375 412.23070312 285.34765625 413.015625 C286.04387085 414.02544434 286.04387085 414.02544434 286.75415039 415.05566406 C287.98938639 416.98343586 288.99198931 418.94658249 290 421 C232.16576282 421.71851804 174.33681729 422.17505841 116.49829838 422.29708112 C106.27532857 422.31879248 96.05237129 422.34500844 85.82941227 422.37124526 C67.50851463 422.41813784 49.1876106 422.46154399 30.86669922 422.50268555 C13.36148463 422.54200063 -4.14372271 422.58352966 -21.64892578 422.62768555 C-22.72911084 422.63040982 -23.8092959 422.63313409 -24.92221384 422.63594092 C-27.10059311 422.64143683 -29.27897239 422.64693328 -31.45735166 422.65243029 C-32.5336855 422.65514634 -33.61001933 422.65786239 -34.71896935 422.66066074 C-35.79377519 422.66337411 -36.86858104 422.66608747 -37.97595676 422.66888306 C-55.04893761 422.71191273 -72.1219227 422.7532199 -89.19490849 422.79423871 C-94.25167117 422.80639113 -99.30843366 422.81860841 -104.36519575 422.83100247 C-160.91022955 422.96955428 -217.45479539 423.02624291 -274 423 C-273.37979295 421.73553762 -272.75675819 420.47246201 -272.13256836 419.20996094 C-271.78592636 418.50643494 -271.43928436 417.80290894 -271.08213806 417.07806396 C-269.4700929 413.98240262 -267.53826231 411.1199738 -265.5625 408.25 C-264.67334782 406.93696332 -263.78538918 405.62311786 -262.8984375 404.30859375 C-262.42889648 403.61362793 -261.95935547 402.91866211 -261.47558594 402.20263672 C-258.83842526 398.2660941 -256.26463379 394.28849475 -253.6875 390.3125 C-252.8668103 389.04744629 -252.8668103 389.04744629 -252.02954102 387.75683594 C-250.9105427 386.03158434 -249.79181034 384.30616022 -248.67333984 382.58056641 C-245.95255364 378.38466471 -243.22604238 374.19248787 -240.5 370 C-239.41663805 368.33335194 -238.33330474 366.66668525 -237.25 365 C-230.75 355.00000001 -230.75 355.00000001 -229.12451172 352.49926758 C-228.0427831 350.8350572 -226.96107732 349.17083197 -225.87939453 347.5065918 C-223.14669755 343.30222105 -220.41358595 339.09812086 -217.6796875 334.89453125 C-212.65278752 327.16443099 -207.62970413 319.43199212 -202.625 311.6875 C-197.67036869 304.02187845 -192.68489669 296.3765263 -187.69677734 288.73266602 C-179.15807003 275.64713499 -170.64257435 262.54667897 -162.15869141 249.42553711 C-157.0052795 241.45754089 -151.83085804 233.50321596 -146.65722656 225.54833984 C-143.93741031 221.36604137 -141.21875722 217.18298696 -138.5 213 C-137.41667239 211.33332961 -136.33333905 209.66666295 -135.25 208 C-134.71375 207.175 -134.1775 206.35 -133.625 205.5 C-128.75 198 -128.75 198 -127.12451172 195.49926758 C-126.0427831 193.8350572 -124.96107732 192.17083197 -123.87939453 190.5065918 C-121.14669755 186.30222105 -118.41358595 182.09812086 -115.6796875 177.89453125 C-110.61182138 170.10149184 -105.54741092 162.30630698 -100.5 154.5 C-91.82409568 141.08305251 -83.10675268 127.69315368 -74.375 114.3125 C-69.58759389 106.97590035 -64.81241218 99.63169787 -60.05761719 92.27392578 C-54.93968912 84.35530129 -49.79774882 76.45230786 -44.65722656 68.54833984 C-41.93741031 64.36604137 -39.21875722 60.18298696 -36.5 56 C-35.41667239 54.33332961 -34.33333905 52.66666295 -33.25 51 C-32.71375 50.175 -32.1775 49.35 -31.625 48.5 C-30 46 -28.375 43.5 -26.75 41 C-26.2130249 40.17387207 -25.6760498 39.34774414 -25.12280273 38.49658203 C-24.04683945 36.8412788 -22.97083084 35.18600504 -21.89477539 33.53076172 C-19.07329491 29.1904834 -16.25276244 24.84959283 -13.43359375 20.5078125 C-12.84835937 19.60675781 -12.263125 18.70570313 -11.66015625 17.77734375 C-10.54397815 16.05878381 -9.42807527 14.34004507 -8.3125 12.62109375 C-5.56793284 8.39599673 -2.805593 4.18484135 0 0 Z " fill="#0060C4" transform="translate(783,905)"/>
<path d="M0 0 C1.58167969 -0.00580078 1.58167969 -0.00580078 3.1953125 -0.01171875 C4.22398437 -0.01042969 5.25265625 -0.00914062 6.3125 -0.0078125 C7.23675781 -0.00668457 8.16101562 -0.00555664 9.11328125 -0.00439453 C12.42695967 0.14413808 15.71633191 0.65590456 19 1.125 C19 48.315 19 95.505 19 144.125 C2 143.125 2 143.125 -6 142.125 C-7.57239979 142.03791569 -9.1469408 141.97877341 -10.72167969 141.96386719 C-11.55745544 141.95425964 -12.3932312 141.9446521 -13.2543335 141.93475342 C-14.13462219 141.93050354 -15.01491089 141.92625366 -15.921875 141.921875 C-17.33197845 141.91332489 -17.33197845 141.91332489 -18.77056885 141.90460205 C-20.75735364 141.89519535 -22.74415374 141.88863539 -24.73095703 141.88476562 C-27.69984068 141.87516225 -30.6680001 141.84413997 -33.63671875 141.8125 C-68.56701727 141.61776333 -102.32851743 150.37710646 -128.1875 175 C-143.51375424 190.8791051 -151.0808489 211.80574326 -155 233.125 C-155.27445985 234.56913442 -155.27445985 234.56913442 -155.55446434 236.04244328 C-157.66647817 249.18123824 -157.3111845 262.46623607 -157.31667423 275.73613918 C-157.3204044 279.48030973 -157.33557731 283.22443726 -157.34928894 286.96858215 C-157.3714532 293.43935115 -157.38653126 299.91010463 -157.39665604 306.38090324 C-157.41130483 315.73633349 -157.4368586 325.09170958 -157.46498732 334.44710786 C-157.5103433 349.62935633 -157.54700412 364.81161265 -157.578125 379.99389648 C-157.60835657 394.7331683 -157.64275025 409.47242089 -157.68261719 424.21166992 C-157.6850987 425.13100589 -157.6875802 426.05034185 -157.69013691 426.99753648 C-157.70957914 434.18843463 -157.72926107 441.37933212 -157.74901867 448.57022941 C-157.84563092 483.7551295 -157.92135591 518.9400463 -158 554.125 C-206.84 554.125 -255.68 554.125 -306 554.125 C-306 374.605 -306 195.085 -306 10.125 C-257.16 10.125 -208.32 10.125 -158 10.125 C-157.67 44.115 -157.34 78.105 -157 113.125 C-153.04 105.535 -149.08 97.945 -145 90.125 C-141.76682985 84.99924244 -138.55898243 80.00732237 -135 75.125 C-134.59571777 74.5666748 -134.19143555 74.00834961 -133.77490234 73.43310547 C-127.72415027 65.14719646 -121.07362206 57.54717735 -114 50.125 C-113.23429687 49.29484375 -112.46859375 48.4646875 -111.6796875 47.609375 C-83.24545846 17.72933771 -41.15652991 -0.15094082 0 0 Z " fill="#575757" transform="translate(3174,466.875)"/>
<path d="M0 0 C0.68094727 0.18191895 1.36189453 0.36383789 2.06347656 0.55126953 C15.69561982 4.32150391 28.28551271 10.74564438 39 20 C39.72316406 20.58007812 40.44632813 21.16015625 41.19140625 21.7578125 C65.0864986 41.62190666 76.01674408 74.34962728 81 104 C81.33 109.28 81.66 114.56 82 120 C7.09 120 -67.82 120 -145 120 C-145 109.85578635 -145 109.85578635 -144.30078125 105.94140625 C-144.14649658 105.07056396 -143.99221191 104.19972168 -143.83325195 103.30249023 C-143.66140381 102.39829346 -143.48955566 101.49409668 -143.3125 100.5625 C-143.04022583 99.12015991 -143.04022583 99.12015991 -142.76245117 97.64868164 C-136.62538253 66.12421483 -123.6592101 32.37631852 -96.11938477 13.45385742 C-84.38442552 5.77563006 -71.84036838 0.42676142 -58 -2 C-57.13503906 -2.16628906 -56.27007813 -2.33257813 -55.37890625 -2.50390625 C-36.90864788 -5.88408425 -18.08342574 -4.91020284 0 0 Z " fill="#FEFEFE" transform="translate(2531,579)"/>
<path d="M0 0 C1.1346167 0.00418945 2.2692334 0.00837891 3.43823242 0.01269531 C33.73753294 0.41551467 60.56290251 10.82134303 81.92138672 32.44189453 C86.3417883 37.05314349 90.07957667 41.86975913 93.4375 47.3125 C93.99566406 48.16457031 94.55382813 49.01664063 95.12890625 49.89453125 C103.07882729 62.6108479 108.05641834 76.79973155 111.8125 91.25 C112.05105713 92.14041992 112.28961426 93.03083984 112.53540039 93.94824219 C115.01631066 104.1085874 115.4182056 113.60990883 116.4375 124.3125 C41.5275 124.3125 -33.3825 124.3125 -110.5625 124.3125 C-110.5625 115.09912414 -109.44940198 107.18581921 -107.5625 98.3125 C-107.42328125 97.62736328 -107.2840625 96.94222656 -107.140625 96.23632812 C-101.13407276 66.84315353 -87.66765998 35.67159204 -62.296875 17.92578125 C-59.11184941 15.90629039 -55.89821821 14.07089428 -52.5625 12.3125 C-51.52480469 11.75949219 -50.48710937 11.20648437 -49.41796875 10.63671875 C-41.08561003 6.49622483 -32.63810742 4.17958225 -23.5625 2.3125 C-22.73790283 2.13372314 -21.91330566 1.95494629 -21.0637207 1.77075195 C-14.00575161 0.34236102 -7.19139209 -0.03657278 0 0 Z " fill="#FEFEFE" transform="translate(3869.5625,574.6875)"/>
<path d="M0 0 C0.99 0.99 1.98 1.98 3 3 C2.01 3.495 2.01 3.495 1 4 C1 207.94 1 411.88 1 622 C0.67 622 0.34 622 0 622 C-0.09535149 563.21946719 -0.19069719 504.43893436 -0.28601074 445.65840149 C-0.28742048 444.7890076 -0.28883022 443.9196137 -0.29028267 443.02387454 C-0.32091697 424.13149477 -0.35155018 405.239115 -0.38218227 386.34673522 C-0.39720334 377.08247517 -0.41222466 367.81821513 -0.42724609 358.55395508 C-0.42874094 357.63202941 -0.43023578 356.71010375 -0.43177592 355.76024094 C-0.48026448 325.85559384 -0.52876884 295.95094676 -0.57728135 266.0462997 C-0.62711687 235.32605683 -0.67693653 204.60581395 -0.7267361 173.88557103 C-0.73376324 169.55069067 -0.74079056 165.21581031 -0.74781799 160.88092995 C-0.74920114 160.02772837 -0.75058429 159.17452679 -0.75200936 158.29547062 C-0.77431206 144.53825207 -0.79663159 130.78103355 -0.81895734 117.02381504 C-0.84137925 103.20712437 -0.8637836 89.39043367 -0.88616979 75.57374295 C-0.89948497 67.35599114 -0.91281383 59.13823935 -0.92616192 50.92048759 C-0.93610547 44.79783486 -0.94602388 38.6751821 -0.9559322 32.55252931 C-0.95996133 30.06527837 -0.96399882 27.57802744 -0.96804518 25.09077653 C-0.97351327 21.72887144 -0.97895188 18.3669663 -0.98438263 15.00506115 C-0.98598697 14.02306105 -0.98759132 13.04106096 -0.98924428 12.02930328 C-0.9906777 11.13814299 -0.99211112 10.2469827 -0.99358797 9.32881755 C-0.99483582 8.55936513 -0.99608366 7.78991271 -0.99736932 6.99714355 C-1.00394128 2.00788256 -1.00394128 2.00788256 0 0 Z " fill="#345CA5" transform="translate(787,0)"/>
</svg>
